<?xml version="1.0" encoding="UTF-8" standalone="no" ?>
<!DOCTYPE svg PUBLIC "-//W3C//DTD SVG 1.1//EN" "http://www.w3.org/Graphics/SVG/1.1/DTD/svg11.dtd">
<svg xmlns="http://www.w3.org/2000/svg" xmlns:xlink="http://www.w3.org/1999/xlink" version="1.1" width="100" height="56" viewBox="0 0 100 56" xml:space="preserve">
<desc>Created with Fabric.js 4.6.0</desc>
<defs>
</defs>
<g transform="matrix(1 0 0 1 16.41 21.79)" id="Z7zlEkdmA_o4u3TTLa5dd"  >
<path style="stroke: rgb(0,0,0); stroke-width: 1; stroke-dasharray: none; stroke-linecap: round; stroke-dashoffset: 0; stroke-linejoin: round; stroke-miterlimit: 10; fill: none; fill-rule: nonzero; opacity: 1;" vector-effect="non-scaling-stroke"  transform=" translate(-174.15, -349.85)" d="M 189.78000552486185 329.28076795580114 Q 189.77900552486184 329.2817679558011 189.22651933701655 329.2817679558011 Q 188.67403314917127 329.2817679558011 186.46408839779005 330.38674033149175 Q 184.25414364640883 331.49171270718233 178.17679558011048 335.6353591160221 Q 172.09944751381212 339.7790055248619 169.06077348066296 342.81767955801104 Q 166.0220994475138 345.85635359116026 164.08839779005524 348.8950276243094 Q 162.15469613259668 351.9337016574586 160.2209944751381 357.18232044198896 Q 158.2872928176795 362.43093922651934 158.83977900552483 364.3646408839779 Q 159.39226519337015 366.2983425414365 160.77348066298342 367.6795580110497 Q 162.15469613259668 369.060773480663 164.9171270718232 369.889502762431 Q 167.6795580110497 370.71823204419894 175.41436464088395 368.78453038674036 L 183.1501712707182 366.8498287292818" stroke-linecap="round" />
</g>
<g transform="matrix(1 0 0 1 34.61 29.84)" id="jSHDlktomZAhb0-2ifYXR"  >
<path style="stroke: rgb(0,0,0); stroke-width: 1; stroke-dasharray: none; stroke-linecap: round; stroke-dashoffset: 0; stroke-linejoin: round; stroke-miterlimit: 10; fill: none; fill-rule: nonzero; opacity: 1;" vector-effect="non-scaling-stroke"  transform=" translate(-192.35, -357.9)" d="M 195.30486740331492 345.8553535911603 Q 195.3038674033149 345.85635359116026 193.37016574585633 348.3425414364641 Q 191.43646408839774 350.828729281768 189.50276243093919 356.0773480662984 Q 187.56906077348063 361.32596685082876 187.01657458563534 364.0883977900553 Q 186.46408839779005 366.8508287292818 187.292817679558 368.5082872928177 Q 188.12154696132595 370.1657458563536 189.22651933701655 369.6132596685083 Q 190.33149171270716 369.060773480663 193.09392265193367 365.1933701657459 Q 195.85635359116017 361.32596685082876 196.96132596685078 357.4585635359116 Q 198.0662983425414 353.5911602209945 198.0662983425414 350.828729281768 Q 198.0662983425414 348.0662983425415 197.5138121546961 347.2375690607735 Q 196.9613259668508 346.4088397790056 195.30386740331488 348.0662983425415 L 193.64540883977895 349.72475690607735" stroke-linecap="round" />
</g>
<g transform="matrix(1 0 0 1 52.2 36.94)" id="15hOv9W0iMnN4MqygLxIK"  >
<path style="stroke: rgb(0,0,0); stroke-width: 1; stroke-dasharray: none; stroke-linecap: round; stroke-dashoffset: 0; stroke-linejoin: round; stroke-miterlimit: 10; fill: none; fill-rule: nonzero; opacity: 1;" vector-effect="non-scaling-stroke"  transform=" translate(-209.94, -365)" d="M 202.4851878453038 375.6916077348066 Q 202.48618784530382 375.69060773480663 202.48618784530382 375.414364640884 Q 202.48618784530382 375.1381215469614 203.3149171270718 369.61325966850836 Q 204.14364640883977 364.0883977900553 204.69613259668506 361.04972375690613 Q 205.24861878453035 358.0110497237569 205.80110497237567 356.90607734806633 Q 206.353591160221 355.8011049723757 206.90607734806628 354.97237569060775 Q 207.45856353591157 354.1436464088398 208.01104972375688 354.6961325966851 Q 208.5635359116022 355.24861878453044 208.83977900552483 358.83977900552486 Q 209.11602209944746 362.43093922651934 209.11602209944746 362.98342541436466 Q 209.11602209944746 363.53591160221 209.66850828729278 362.4309392265194 Q 210.2209944751381 361.32596685082876 211.04972375690605 359.39226519337024 Q 211.878453038674 357.45856353591165 212.70718232044194 356.90607734806633 Q 213.5359116022099 356.353591160221 214.0883977900552 356.353591160221 Q 214.64088397790053 356.353591160221 215.46961325966848 359.11602209944755 Q 216.29834254143643 361.8784530386741 216.57458563535909 365.19337016574593 Q 216.85082872928174 368.5082872928177 216.57458563535909 370.9944751381216 Q 216.29834254143643 373.4806629834254 216.85082872928174 374.03314917127074 L 217.40431491712707 374.58663535911603" stroke-linecap="round" />
</g>
<g transform="matrix(1 0 0 1 67.95 33.82)" id="cD-qN383ksA3OGT5I5l7o"  >
<path style="stroke: rgb(0,0,0); stroke-width: 1; stroke-dasharray: none; stroke-linecap: round; stroke-dashoffset: 0; stroke-linejoin: round; stroke-miterlimit: 10; fill: none; fill-rule: nonzero; opacity: 1;" vector-effect="non-scaling-stroke"  transform=" translate(-225.69, -361.88)" d="M 230.66398342541436 346.96032596685086 Q 230.66298342541435 346.96132596685084 227.90055248618782 356.353591160221 Q 225.1381215469613 365.7458563535912 224.30939226519334 368.78453038674036 Q 223.4806629834254 371.8232044198895 222.09944751381212 374.3093922651934 L 220.71723204419885 376.79658011049725" stroke-linecap="round" />
</g>
<g transform="matrix(1 0 0 1 69.61 23.6)" id="HmrFYjDHZpynDR9OeLozR"  >
<path style="stroke: rgb(0,0,0); stroke-width: 1; stroke-dasharray: none; stroke-linecap: round; stroke-dashoffset: 0; stroke-linejoin: round; stroke-miterlimit: 10; fill: none; fill-rule: nonzero; opacity: 1;" vector-effect="non-scaling-stroke"  transform=" translate(-227.35, -351.66)" d="M 218.50728729281764 355.8011049723757 Q 218.50828729281764 355.8011049723757 227.3480662983425 351.6574585635359 L 236.18884530386737 347.51381215469615" stroke-linecap="round" />
</g>
<g transform="matrix(1 0 0 1 88.49 37.01)" id="8fZ8i6VlFUb3nQIqOsiRk"  >
<path style="stroke: rgb(0,0,0); stroke-width: 1; stroke-dasharray: none; stroke-linecap: round; stroke-dashoffset: 0; stroke-linejoin: round; stroke-miterlimit: 10; fill: none; fill-rule: nonzero; opacity: 1;" vector-effect="non-scaling-stroke"  transform=" translate(-246.23, -365.07)" d="M 248.34354143646408 345.8553535911603 Q 248.34254143646407 345.85635359116026 248.06629834254142 345.85635359116026 Q 247.79005524861876 345.85635359116026 241.71270718232043 362.70718232044203 Q 235.6353591160221 379.5580110497238 235.91160220994473 382.04419889502765 Q 236.18784530386736 384.5303867403315 241.43646408839777 383.9779005524862 Q 246.68508287292818 383.4254143646409 251.38121546961327 374.58563535911605 Q 256.0773480662983 365.7458563535912 256.35359116022096 363.81215469613267 Q 256.6298342541436 361.8784530386741 256.6298342541436 360.4972375690608 Q 256.6298342541436 359.11602209944755 254.69613259668506 355.52486187845307 Q 252.7624309392265 351.9337016574586 250.27624309392263 351.38121546961327 Q 247.79005524861876 350.828729281768 242.81767955801104 356.3535911602211 L 237.8443038674033 361.87945303867406" stroke-linecap="round" />
</g>
<g transform="matrix(1 0 0 1 -11.05 38.4)" id="wKDt3mzFtTQ0nsTcyVL5G"  >
<path style="stroke: rgb(0,0,0); stroke-width: 1; stroke-dasharray: none; stroke-linecap: round; stroke-dashoffset: 0; stroke-linejoin: round; stroke-miterlimit: 10; fill: none; fill-rule: nonzero; opacity: 1;" vector-effect="non-scaling-stroke"  transform=" translate(11.05, -38.4)" d="M -10.774480662983459 36.46408839779006 Q -10.77348066298346 36.46408839779006 -11.049723756906111 38.39779005524862 L -11.324966850828764 40.331491712707184" stroke-linecap="round" />
</g>
</svg>